<svg viewBox="0 0 200 200" xmlns="http://www.w3.org/2000/svg">
  <!-- Background Aura -->
  <circle cx="100" cy="100" r="95" fill="none" stroke="#FFD700" stroke-width="2" opacity="0.3"/>
  
  <!-- Body -->
  <ellipse cx="100" cy="140" rx="35" ry="45" fill="#4169E1" stroke="#191970" stroke-width="2"/>
  
  <!-- Arms -->
  <ellipse cx="70" cy="120" rx="15" ry="35" fill="#4169E1" stroke="#191970" stroke-width="2"/>
  <ellipse cx="130" cy="120" rx="15" ry="35" fill="#4169E1" stroke="#191970" stroke-width="2"/>
  
  <!-- Head -->
  <circle cx="100" cy="70" r="25" fill="#FDBCB4" stroke="#D2691E" stroke-width="2"/>
  
  <!-- Hair -->
  <path d="M75 55 Q85 45 100 50 Q115 45 125 55 Q120 65 100 60 Q80 65 75 55" fill="#8B4513" stroke="#654321" stroke-width="1"/>
  
  <!-- Eyes -->
  <circle cx="92" cy="65" r="3" fill="#4169E1"/>
  <circle cx="108" cy="65" r="3" fill="#4169E1"/>
  <circle cx="92" cy="65" r="1.5" fill="#000000"/>
  <circle cx="108" cy="65" r="1.5" fill="#000000"/>
  
  <!-- Nose -->
  <path d="M100 70 L98 75 L102 75 Z" fill="#D2691E"/>
  
  <!-- Mouth -->
  <path d="M95 80 Q100 83 105 80" fill="none" stroke="#8B0000" stroke-width="2"/>
  
  <!-- Beard -->
  <path d="M95 85 Q100 90 105 85 Q103 95 100 98 Q97 95 95 85" fill="#8B4513" stroke="#654321" stroke-width="1"/>
  
  <!-- Crown -->
  <path d="M80 45 L85 35 L90 40 L95 30 L100 40 L105 30 L110 40 L115 35 L120 45 Q100 50 80 45" fill="#FFD700" stroke="#FFA500" stroke-width="2"/>
  
  <!-- Crown Jewels -->
  <circle cx="88" cy="38" r="3" fill="#FF0000"/>
  <circle cx="100" cy="35" r="3" fill="#0000FF"/>
  <circle cx="112" cy="38" r="3" fill="#FF0000"/>
  
  <!-- Excalibur Sword -->
  <g transform="translate(130, 120) rotate(45)">
    <!-- Blade -->
    <rect x="0" y="-3" width="40" height="6" fill="#C0C0C0" stroke="#808080" stroke-width="1"/>
    <!-- Handle -->
    <rect x="-15" y="-2" width="15" height="4" fill="#8B4513" stroke="#654321" stroke-width="1"/>
    <!-- Cross Guard -->
    <rect x="-5" y="-8" width="10" height="16" fill="#FFD700" stroke="#FFA500" stroke-width="1"/>
    <!-- Pommel -->
    <circle cx="-15" cy="0" r="4" fill="#FFD700" stroke="#FFA500" stroke-width="1"/>
    <!-- Blade Glow -->
    <rect x="0" y="-2" width="40" height="4" fill="#87CEEB" opacity="0.5"/>
  </g>
  
  <!-- Shield on Left Arm -->
  <ellipse cx="70" cy="110" rx="12" ry="18" fill="#C0C0C0" stroke="#808080" stroke-width="2"/>
  <path d="M70 95 Q75 100 70 105 Q65 100 70 95" fill="#FF0000"/>
  <path d="M70 110 Q75 115 70 120 Q65 115 70 110" fill="#FF0000"/>
  
  <!-- Cape -->
  <path d="M65 110 Q50 120 45 140 Q50 160 65 150 Q75 140 65 110" fill="#8B0000" stroke="#4A0000" stroke-width="2" opacity="0.8"/>
  <path d="M135 110 Q150 120 155 140 Q150 160 135 150 Q125 140 135 110" fill="#8B0000" stroke="#4A0000" stroke-width="2" opacity="0.8"/>
  
  <!-- Legs -->
  <ellipse cx="85" cy="180" rx="12" ry="25" fill="#4169E1" stroke="#191970" stroke-width="2"/>
  <ellipse cx="115" cy="180" rx="12" ry="25" fill="#4169E1" stroke="#191970" stroke-width="2"/>
  
  <!-- Boots -->
  <ellipse cx="85" cy="195" rx="10" ry="8" fill="#8B4513" stroke="#654321" stroke-width="2"/>
  <ellipse cx="115" cy="195" rx="10" ry="8" fill="#8B4513" stroke="#654321" stroke-width="2"/>
  
  <!-- Royal Symbols -->
  <path d="M100 130 L105 125 L110 130 L105 135 Z" fill="#FFD700" stroke="#FFA500" stroke-width="1"/>
  <circle cx="105" cy="130" r="3" fill="#FF0000"/>
  
  <!-- Magical Sparkles -->
  <g opacity="0.8">
    <circle cx="60" cy="60" r="2" fill="#FFD700"/>
    <circle cx="140" cy="80" r="2" fill="#FFD700"/>
    <circle cx="40" cy="120" r="2" fill="#87CEEB"/>
    <circle cx="160" cy="140" r="2" fill="#87CEEB"/>
    <circle cx="80" cy="180" r="2" fill="#FFD700"/>
    <circle cx="120" cy="180" r="2" fill="#FFD700"/>
  </g>
  
  <!-- Royal Aura Lines -->
  <path d="M100 20 L100 30" stroke="#FFD700" stroke-width="3" opacity="0.6"/>
  <path d="M100 170 L100 180" stroke="#FFD700" stroke-width="3" opacity="0.6"/>
  <path d="M20 100 L30 100" stroke="#FFD700" stroke-width="3" opacity="0.6"/>
  <path d="M170 100 L180 100" stroke="#FFD700" stroke-width="3" opacity="0.6"/>
</svg> 