<svg viewBox="0 0 200 200" xmlns="http://www.w3.org/2000/svg">
  <!-- Dragon Body -->
  <ellipse cx="100" cy="120" rx="60" ry="35" fill="#8B0000" stroke="#4A0000" stroke-width="2"/>
  
  <!-- Dragon Head -->
  <ellipse cx="100" cy="70" rx="40" ry="30" fill="#B22222" stroke="#4A0000" stroke-width="2"/>
  
  <!-- Dragon Snout -->
  <ellipse cx="100" cy="50" rx="20" ry="15" fill="#CD5C5C" stroke="#4A0000" stroke-width="2"/>
  
  <!-- Nostrils -->
  <ellipse cx="95" cy="45" rx="3" ry="2" fill="#000000"/>
  <ellipse cx="105" cy="45" rx="3" ry="2" fill="#000000"/>
  
  <!-- Fire Breath -->
  <g opacity="0.8">
    <path d="M100 35 Q90 25 85 15 Q95 20 100 10 Q105 20 115 15 Q110 25 100 35" fill="#FF4500"/>
    <path d="M100 35 Q88 28 82 18 Q92 23 100 13 Q108 23 118 18 Q112 28 100 35" fill="#FF6347"/>
    <path d="M100 35 Q85 30 80 20 Q90 25 100 15 Q110 25 120 20 Q115 30 100 35" fill="#FFD700"/>
  </g>
  
  <!-- Eyes -->
  <circle cx="88" cy="65" r="8" fill="#FFD700" stroke="#000000" stroke-width="1"/>
  <circle cx="112" cy="65" r="8" fill="#FFD700" stroke="#000000" stroke-width="1"/>
  <circle cx="88" cy="65" r="4" fill="#000000"/>
  <circle cx="112" cy="65" r="4" fill="#000000"/>
  
  <!-- Horns -->
  <path d="M75 55 L70 35 L80 40 Z" fill="#4A0000" stroke="#000000" stroke-width="1"/>
  <path d="M125 55 L130 35 L120 40 Z" fill="#4A0000" stroke="#000000" stroke-width="1"/>
  
  <!-- Wings -->
  <path d="M40 90 Q20 70 15 100 Q25 120 50 110 Q60 100 40 90" fill="#8B0000" stroke="#4A0000" stroke-width="2" opacity="0.9"/>
  <path d="M160 90 Q180 70 185 100 Q175 120 150 110 Q140 100 160 90" fill="#8B0000" stroke="#4A0000" stroke-width="2" opacity="0.9"/>
  
  <!-- Wing Details -->
  <path d="M40 90 Q30 85 25 95 Q35 105 45 95" fill="#B22222" opacity="0.7"/>
  <path d="M160 90 Q170 85 175 95 Q165 105 155 95" fill="#B22222" opacity="0.7"/>
  
  <!-- Tail -->
  <path d="M160 120 Q180 130 190 150 Q185 160 170 155 Q150 140 160 120" fill="#8B0000" stroke="#4A0000" stroke-width="2"/>
  
  <!-- Tail Spikes -->
  <path d="M175 145 L180 135 L185 145 Z" fill="#4A0000"/>
  <path d="M182 155 L187 145 L192 155 Z" fill="#4A0000"/>
  
  <!-- Legs -->
  <ellipse cx="75" cy="150" rx="12" ry="20" fill="#8B0000" stroke="#4A0000" stroke-width="2"/>
  <ellipse cx="125" cy="150" rx="12" ry="20" fill="#8B0000" stroke="#4A0000" stroke-width="2"/>
  
  <!-- Claws -->
  <path d="M70 165 L65 175 L75 175 Z" fill="#000000"/>
  <path d="M75 165 L70 175 L80 175 Z" fill="#000000"/>
  <path d="M120 165 L115 175 L125 175 Z" fill="#000000"/>
  <path d="M125 165 L120 175 L130 175 Z" fill="#000000"/>
  
  <!-- Belly Scales -->
  <ellipse cx="100" cy="130" rx="25" ry="15" fill="#CD5C5C" opacity="0.6"/>
  <ellipse cx="100" cy="125" rx="20" ry="10" fill="#F08080" opacity="0.4"/>
  
  <!-- Sparkles around dragon -->
  <circle cx="50" cy="60" r="2" fill="#FFD700" opacity="0.8"/>
  <circle cx="150" cy="80" r="2" fill="#FFD700" opacity="0.8"/>
  <circle cx="30" cy="120" r="2" fill="#FF4500" opacity="0.8"/>
  <circle cx="170" cy="140" r="2" fill="#FF4500" opacity="0.8"/>
</svg> 