<svg viewBox="0 0 200 200" xmlns="http://www.w3.org/2000/svg">
  <!-- Unicorn Body -->
  <ellipse cx="100" cy="130" rx="50" ry="25" fill="#FFFFFF" stroke="#E6E6FA" stroke-width="2"/>
  
  <!-- Unicorn Head -->
  <ellipse cx="100" cy="80" rx="35" ry="25" fill="#FFFFFF" stroke="#E6E6FA" stroke-width="2"/>
  
  <!-- Unicorn Snout -->
  <ellipse cx="100" cy="60" rx="15" ry="10" fill="#FFB6C1" stroke="#E6E6FA" stroke-width="1"/>
  
  <!-- Nostrils -->
  <ellipse cx="97" cy="58" rx="2" ry="1" fill="#000000"/>
  <ellipse cx="103" cy="58" rx="2" ry="1" fill="#000000"/>
  
  <!-- Eyes -->
  <circle cx="90" cy="75" r="6" fill="#87CEEB" stroke="#000000" stroke-width="1"/>
  <circle cx="110" cy="75" r="6" fill="#87CEEB" stroke="#000000" stroke-width="1"/>
  <circle cx="90" cy="75" r="3" fill="#000000"/>
  <circle cx="110" cy="75" r="3" fill="#000000"/>
  
  <!-- Magical Horn -->
  <path d="M100 45 L95 15 L105 15 Z" fill="#FFD700" stroke="#FFA500" stroke-width="1"/>
  
  <!-- Horn Spiral -->
  <path d="M97 40 Q100 35 103 30 Q100 25 97 20" fill="none" stroke="#FFA500" stroke-width="2"/>
  
  <!-- Mane -->
  <path d="M70 70 Q60 50 55 65 Q65 80 75 75 Q80 70 70 70" fill="#DDA0DD" opacity="0.8"/>
  <path d="M75 65 Q65 45 60 60 Q70 75 80 70 Q85 65 75 65" fill="#DA70D6" opacity="0.8"/>
  <path d="M130 70 Q140 50 145 65 Q135 80 125 75 Q120 70 130 70" fill="#DDA0DD" opacity="0.8"/>
  <path d="M125 65 Q135 45 140 60 Q130 75 120 70 Q115 65 125 65" fill="#DA70D6" opacity="0.8"/>
  
  <!-- Ears -->
  <ellipse cx="85" cy="65" rx="8" ry="15" fill="#FFFFFF" stroke="#E6E6FA" stroke-width="1" transform="rotate(-30 85 65)"/>
  <ellipse cx="115" cy="65" rx="8" ry="15" fill="#FFFFFF" stroke="#E6E6FA" stroke-width="1" transform="rotate(30 115 65)"/>
  
  <!-- Ear Inner -->
  <ellipse cx="85" cy="65" rx="4" ry="8" fill="#FFB6C1" transform="rotate(-30 85 65)"/>
  <ellipse cx="115" cy="65" rx="4" ry="8" fill="#FFB6C1" transform="rotate(30 115 65)"/>
  
  <!-- Legs -->
  <ellipse cx="75" cy="160" rx="8" ry="18" fill="#FFFFFF" stroke="#E6E6FA" stroke-width="2"/>
  <ellipse cx="95" cy="160" rx="8" ry="18" fill="#FFFFFF" stroke="#E6E6FA" stroke-width="2"/>
  <ellipse cx="105" cy="160" rx="8" ry="18" fill="#FFFFFF" stroke="#E6E6FA" stroke-width="2"/>
  <ellipse cx="125" cy="160" rx="8" ry="18" fill="#FFFFFF" stroke="#E6E6FA" stroke-width="2"/>
  
  <!-- Hooves -->
  <ellipse cx="75" cy="175" rx="6" ry="4" fill="#696969"/>
  <ellipse cx="95" cy="175" rx="6" ry="4" fill="#696969"/>
  <ellipse cx="105" cy="175" rx="6" ry="4" fill="#696969"/>
  <ellipse cx="125" cy="175" rx="6" ry="4" fill="#696969"/>
  
  <!-- Tail -->
  <path d="M150 130 Q170 140 175 160 Q170 170 160 165 Q150 150 150 130" fill="#DDA0DD" opacity="0.8"/>
  <path d="M150 135 Q165 145 170 165 Q165 175 155 170 Q145 155 150 135" fill="#DA70D6" opacity="0.8"/>
  
  <!-- Magical Sparkles -->
  <g opacity="0.9">
    <path d="M50 50 L52 55 L57 53 L52 58 L50 63 L48 58 L43 53 L48 55 Z" fill="#FFD700"/>
    <path d="M150 40 L152 45 L157 43 L152 48 L150 53 L148 48 L143 43 L148 45 Z" fill="#FFD700"/>
    <path d="M30 100 L32 105 L37 103 L32 108 L30 113 L28 108 L23 103 L28 105 Z" fill="#FF69B4"/>
    <path d="M170 110 L172 115 L177 113 L172 118 L170 123 L168 118 L163 113 L168 115 Z" fill="#FF69B4"/>
    <path d="M60 170 L62 175 L67 173 L62 178 L60 183 L58 178 L53 173 L58 175 Z" fill="#87CEEB"/>
    <path d="M140 170 L142 175 L147 173 L142 178 L140 183 L138 178 L133 173 L138 175 Z" fill="#87CEEB"/>
  </g>
  
  <!-- Magical Aura -->
  <circle cx="100" cy="100" r="90" fill="none" stroke="#FFD700" stroke-width="1" opacity="0.3"/>
  <circle cx="100" cy="100" r="85" fill="none" stroke="#FF69B4" stroke-width="1" opacity="0.2"/>
  <circle cx="100" cy="100" r="80" fill="none" stroke="#87CEEB" stroke-width="1" opacity="0.1"/>
</svg> 